<?xml version="1.0" encoding="UTF-8" standalone="no"?>
<svg
   xmlns:dc="http://purl.org/dc/elements/1.1/"
   xmlns:cc="http://creativecommons.org/ns#"
   xmlns:rdf="http://www.w3.org/1999/02/22-rdf-syntax-ns#"
   xmlns:svg="http://www.w3.org/2000/svg"
   xmlns="http://www.w3.org/2000/svg"
   xmlns:xlink="http://www.w3.org/1999/xlink"
   xmlns:sodipodi="http://sodipodi.sourceforge.net/DTD/sodipodi-0.dtd"
   xmlns:inkscape="http://www.inkscape.org/namespaces/inkscape"
   width="1920"
   height="1920"
   viewBox="0 0 508.00001 507.99999"
   version="1.1"
   id="svg8"
   inkscape:version="1.0.1 (3bc2e813f5, 2020-09-07)"
   sodipodi:docname="fantuzzo_logo.svg">
  <defs
     id="defs2">
    <rect
       x="571.57128"
       y="137.32558"
       width="257.52293"
       height="155.39557"
       id="rect2145" />
    <rect
       x="381.0753"
       y="432.99581"
       width="214.64535"
       height="55.642091"
       id="rect1496" />
    <linearGradient
       inkscape:collect="always"
       id="linearGradient1311">
      <stop
         style="stop-color:#214478;stop-opacity:1;"
         offset="0"
         id="stop1307" />
      <stop
         style="stop-color:#87cdde;stop-opacity:1"
         offset="1"
         id="stop1309" />
    </linearGradient>
    <inkscape:path-effect
       effect="perspective-envelope"
       up_left_point="198.26621,131.40936"
       up_right_point="233.35919,125.56131"
       down_left_point="198.96362,154.74112"
       down_right_point="234.2636,159.86502"
       id="path-effect929"
       is_visible="true"
       lpeversion="1"
       deform_type="perspective"
       horizontal_mirror="false"
       vertical_mirror="false"
       overflow_perspective="false" />
    <inkscape:path-effect
       effect="perspective-envelope"
       up_left_point="157.4789,134.0791"
       up_right_point="185.72248,131.51709"
       down_left_point="157.63387,151.28436"
       down_right_point="186.32948,156.14803"
       id="path-effect927"
       is_visible="true"
       lpeversion="1"
       deform_type="perspective"
       horizontal_mirror="false"
       vertical_mirror="false"
       overflow_perspective="false" />
    <radialGradient
       inkscape:collect="always"
       xlink:href="#linearGradient1311"
       id="radialGradient1313"
       cx="254"
       cy="219.00371"
       fx="254"
       fy="219.00371"
       r="217.70342"
       gradientTransform="matrix(5.4530429,0,0,0.76477875,-1729.8106,-53.382243)"
       gradientUnits="userSpaceOnUse" />
    <filter
       style="color-interpolation-filters:sRGB;"
       inkscape:label="Blur"
       id="filter1377">
      <feGaussianBlur
         stdDeviation="1.37584 1.16814"
         result="blur"
         id="feGaussianBlur1375" />
    </filter>
    <filter
       style="color-interpolation-filters:sRGB;"
       inkscape:label="Drop Shadow"
       id="filter1449">
      <feFlood
         flood-opacity="0.701961"
         flood-color="rgb(0,0,0)"
         result="flood"
         id="feFlood1439" />
      <feComposite
         in="flood"
         in2="SourceGraphic"
         operator="in"
         result="composite1"
         id="feComposite1441" />
      <feGaussianBlur
         in="composite1"
         stdDeviation="1.83535"
         result="blur"
         id="feGaussianBlur1443" />
      <feOffset
         dx="4.33444"
         dy="5.49482"
         result="offset"
         id="feOffset1445" />
      <feComposite
         in="SourceGraphic"
         in2="offset"
         operator="over"
         result="composite2"
         id="feComposite1447" />
    </filter>
    <filter
       style="color-interpolation-filters:sRGB;"
       inkscape:label="Drop Shadow"
       id="filter1735">
      <feFlood
         flood-opacity="0.701961"
         flood-color="rgb(0,0,0)"
         result="flood"
         id="feFlood1725" />
      <feComposite
         in="flood"
         in2="SourceGraphic"
         operator="in"
         result="composite1"
         id="feComposite1727" />
      <feGaussianBlur
         in="composite1"
         stdDeviation="2.52415"
         result="blur"
         id="feGaussianBlur1729" />
      <feOffset
         dx="1.33444"
         dy="3.49482"
         result="offset"
         id="feOffset1731" />
      <feComposite
         in="SourceGraphic"
         in2="offset"
         operator="over"
         result="composite2"
         id="feComposite1733" />
    </filter>
    <filter
       style="color-interpolation-filters:sRGB;"
       inkscape:label="Drop Shadow"
       id="filter1903">
      <feFlood
         flood-opacity="0.701961"
         flood-color="rgb(0,0,0)"
         result="flood"
         id="feFlood1893" />
      <feComposite
         in="flood"
         in2="SourceGraphic"
         operator="in"
         result="composite1"
         id="feComposite1895" />
      <feGaussianBlur
         in="composite1"
         stdDeviation="1.52415"
         result="blur"
         id="feGaussianBlur1897" />
      <feOffset
         dx="0.334442"
         dy="3.49482"
         result="offset"
         id="feOffset1899" />
      <feComposite
         in="SourceGraphic"
         in2="offset"
         operator="over"
         result="composite2"
         id="feComposite1901" />
    </filter>
    <filter
       style="color-interpolation-filters:sRGB;"
       inkscape:label="Drop Shadow"
       id="filter2231">
      <feFlood
         flood-opacity="0.701961"
         flood-color="rgb(0,0,0)"
         result="flood"
         id="feFlood2221" />
      <feComposite
         in="flood"
         in2="SourceGraphic"
         operator="in"
         result="composite1"
         id="feComposite2223" />
      <feGaussianBlur
         in="composite1"
         stdDeviation="1.52415"
         result="blur"
         id="feGaussianBlur2225" />
      <feOffset
         dx="0.334442"
         dy="1.49482"
         result="offset"
         id="feOffset2227" />
      <feComposite
         in="SourceGraphic"
         in2="offset"
         operator="over"
         result="composite2"
         id="feComposite2229" />
    </filter>
  </defs>
  <sodipodi:namedview
     id="base"
     pagecolor="#ffffff"
     bordercolor="#666666"
     borderopacity="1.0"
     inkscape:pageopacity="0.0"
     inkscape:pageshadow="2"
     inkscape:zoom="0.35"
     inkscape:cx="-328.72029"
     inkscape:cy="1542.5799"
     inkscape:document-units="px"
     inkscape:current-layer="layer1"
     inkscape:document-rotation="0"
     showgrid="false"
     units="px"
     inkscape:snap-midpoints="true"
     inkscape:snap-global="true"
     inkscape:snap-object-midpoints="true"
     inkscape:window-width="3808"
     inkscape:window-height="2064"
     inkscape:window-x="16"
     inkscape:window-y="43"
     inkscape:window-maximized="0" />
  <metadata
     id="metadata5">
    <rdf:RDF>
      <cc:Work
         rdf:about="">
        <dc:format>image/svg+xml</dc:format>
        <dc:type
           rdf:resource="http://purl.org/dc/dcmitype/StillImage" />
        <dc:title></dc:title>
      </cc:Work>
    </rdf:RDF>
  </metadata>
  <g
     inkscape:label="Layer 1"
     inkscape:groupmode="layer"
     id="layer1">
    <g
       id="g986"
       style="fill:#000000"
       transform="translate(14.163969,31.611561)" />
    <g
       id="g992"
       style="fill:#000000"
       transform="translate(14.163969,31.611561)" />
    <g
       id="g998"
       style="fill:#000000"
       transform="translate(14.163969,31.611561)" />
    <g
       id="g1128"
       style="fill:#000000"
       transform="translate(14.163969,31.611561)" />
    <g
       id="g1134"
       style="fill:#000000"
       transform="translate(14.163969,31.611561)" />
    <ellipse
       style="fill:url(#radialGradient1313);fill-opacity:1;stroke:#000000;stroke-width:3.22896;stroke-miterlimit:4;stroke-dasharray:none;stroke-opacity:1;paint-order:markers fill stroke;stop-color:#000000"
       id="path1295"
       cx="-344.73773"
       cy="114.10714"
       rx="216.08894"
       ry="214.60934"
       transform="rotate(-116.07019)" />
    <g
       id="g1293"
       transform="translate(21.436985,87.599995)"
       style="filter:url(#filter1449)">
      <path
         id="path1268"
         style="fill:#aaccff;fill-opacity:1;stroke:#000000;stroke-width:2.64583;stroke-miterlimit:4;stroke-dasharray:none;paint-order:markers fill stroke;stop-color:#000000"
         d="M 394.83272,171.916 A 162.2697,162.2697 0 0 1 232.56303,334.18569 162.2697,162.2697 0 0 1 70.293309,171.916 162.2697,162.2697 0 0 1 232.56303,9.6463077 162.2697,162.2697 0 0 1 394.83272,171.916 Z" />
      <path
         style="fill:#aaccff;fill-opacity:1;stroke:none;stroke-width:0.264583px;stroke-linecap:butt;stroke-linejoin:miter;stroke-opacity:1"
         d="m 316.51844,310.32278 64.12069,-75.46527 1.20044,8.42436 -0.30332,21.91328 -2.44385,16.77948 -2.05343,3.19357 -8.02944,9.42904 -17.584,9.85591 -17.77243,5.18518 z"
         id="path1273" />
      <path
         style="fill:#aaccff;fill-opacity:1;stroke:none;stroke-width:0.264583px;stroke-linecap:butt;stroke-linejoin:miter;stroke-opacity:1"
         d="m 169.70931,320.37131 8.15595,1.93243 42.63467,10.40157 -7.29395,8.01933 -2.4583,3.15416 -1.75383,2.55682 -0.35444,4.21148 -2.05058,4.38322 -7.47034,2.46867 -2.00659,-2.65443 -1.08182,-4.0513 -3.27188,3.94591 -1.0461,2.3191 -3.00377,2.62091 -5.53068,-1.35845 -3.0962,-4.02029 -0.0716,-4.90312 1.64268,-5.17195 -3.20069,2.84332 -2.48705,2.08 -6.72314,-1.6155 -2.08666,-4.79784 0.78613,-4.78835 1.28964,-1.76851 -1.10342,-1.59586 -2.31636,-6.68599 1.68087,-4.47691 z"
         id="path1271" />
      <path
         style="fill:#aaccff;fill-opacity:1;stroke:none;stroke-width:0.264583px;stroke-linecap:butt;stroke-linejoin:miter;stroke-opacity:1"
         d="m 235.86588,334.18033 3.31163,-2.17762 47.46768,-9.33794 2.18794,3.44469 2.13945,5.7228 2.61258,9.20401 1.07767,17.75989 -0.032,9.4071 2.40689,4.2961 1.57628,4.04444 1.27611,8.41426 -1.54223,5.32312 -1.87613,2.21282 -2.11127,0.73824 -1.60356,0.20653 -0.70432,-0.0443 -1.1729,-0.0751 0.009,8.63396 -4.39936,2.66695 -7.11705,0.34163 -5.10715,-1.5313 -0.97573,-0.31274 -1.98829,-0.018 -3.18349,1.22131 -1.88802,0.37264 -5.78461,-2.20353 -3.0168,-3.60751 -1.04451,-1.7254 -1.04259,-1.28627 -4.56223,1.53551 -5.57178,-1.28472 c 0,0 -3.42497,-3.3915 -3.42497,-3.49874 0,-0.10724 0.15837,-4.7689 0.15837,-4.7689 l 1.78348,-2.69642 1.84868,0.67685 1.22971,0.22045 1.79412,-6.06779 -0.80677,-6.06483 -2.23079,-8.36301 -2.85202,-8.59723 -2.53561,-8.52911 -0.24647,-3.83654 -0.84166,-5.55297 -1.31718,-2.86734 -0.93851,-0.87305 z"
         id="path1275" />
      <path
         id="path1146"
         style="color:#000000;font-style:normal;font-variant:normal;font-weight:normal;font-stretch:normal;font-size:medium;line-height:normal;font-family:sans-serif;font-variant-ligatures:normal;font-variant-position:normal;font-variant-caps:normal;font-variant-numeric:normal;font-variant-alternates:normal;font-variant-east-asian:normal;font-feature-settings:normal;font-variation-settings:normal;text-indent:0;text-align:start;text-decoration:none;text-decoration-line:none;text-decoration-style:solid;text-decoration-color:#000000;letter-spacing:normal;word-spacing:normal;text-transform:none;writing-mode:lr-tb;direction:ltr;text-orientation:mixed;dominant-baseline:auto;baseline-shift:baseline;text-anchor:start;white-space:normal;shape-padding:0;shape-margin:0;inline-size:0;clip-rule:nonzero;display:inline;overflow:visible;visibility:visible;isolation:auto;mix-blend-mode:normal;color-interpolation:sRGB;color-interpolation-filters:linearRGB;solid-color:#000000;solid-opacity:1;vector-effect:none;fill:#000000;fill-opacity:1;fill-rule:nonzero;stroke:none;stroke-width:1.99999;stroke-linecap:butt;stroke-linejoin:miter;stroke-miterlimit:4;stroke-dasharray:none;stroke-dashoffset:0;stroke-opacity:1;color-rendering:auto;image-rendering:auto;shape-rendering:auto;text-rendering:auto;enable-background:accumulate;stop-color:#000000"
         d="m 264.3378,125.47289 c -2.85949,15.48465 -7.74816,31.42038 -18.64258,43.23633 9.26852,-1.66004 12.999,-18.23265 16.74264,-26.78579 -0.01,-4.07545 6.74334,-15.26587 1.89994,-16.45054 z m -61.52149,45.60937 c -9.8329,5.21562 8.66325,1.91938 10.51149,2.61066 -2.19882,-1.73333 -7.14957,-2.78584 -10.51149,-2.61066 z m 33.29688,-12.02148 c -7.21142,1.41801 -16.18092,0.33442 -21.4846,6.20802 -4.90673,7.92945 -2.13277,22.96178 9.21943,22.94883 8.10094,1.22653 19.20166,4.2332 23.44523,-5.43367 2.648,-9.07179 1.17923,-23.35666 -11.18006,-23.72318 z m -0.0273,0.60937 c 12.29959,0.41646 14.08064,16.5757 9.38451,25.02886 -6.54293,7.75405 -17.14679,3.08376 -25.59836,2.13442 -8.93033,-3.9423 -9.56253,-20.06996 -0.72408,-24.43052 5.56774,-1.19905 11.25354,-2.27643 16.93793,-2.73276 z m -15.30571,1.95929 c 8.73277,-1.16589 20.54625,-5.78527 25.79491,4.41769 4.15027,9.6344 0.44357,26.18758 -13.15739,23.25071 -7.62717,-1.36335 -18.79068,-0.51836 -20.35877,-10.61406 -1.01505,-6.55753 -0.34562,-15.54497 7.72125,-17.05434 z m -32.1025,2.25946 c -7.025,0.5403 -18.41656,0.20094 -17.21102,10.47117 -0.85931,10.20194 10.40088,10.51049 17.59189,11.72024 14.50018,3.32224 15.5062,-21.91325 1.83211,-22.18247 l -2.21297,-0.009 z m 0.0449,0.50782 c 11.25067,-1.9947 15.67371,15.8051 6.45133,20.49987 -6.90776,1.19248 -15.44732,0.25301 -21.22779,-3.92742 -6.42674,-8.77649 2.2536,-17.87576 11.71345,-16.29453 1.02101,-0.0926 2.04201,-0.18528 3.06301,-0.27792 z m -10.20555,0.67038 c 7.46836,-0.61544 18.34277,-3.31657 21.32729,6.14743 3.0226,8.77297 -4.46125,18.00885 -13.87599,14.08317 -8.5347,0.2773 -17.07798,-6.13167 -13.77151,-15.33793 0.94763,-2.65331 3.48707,-4.68231 6.32021,-4.89267 z m -4.21437,85.93313 c 4.83778,5.46629 15.08444,11.72414 22.89811,16.24481 4.35299,1.97307 8.70597,3.94613 13.05896,5.9192 -0.62896,-3.48044 -8.36514,-4.29043 -11.77366,-6.72648 -8.62166,-4.00918 -15.71936,-10.95604 -24.18341,-15.43753 z m 5.71094,-38.10156 c -2.28996,18.01259 -2.49255,40.74882 13.48047,52.81836 -6.16469,-7.90682 -13.92658,-21.21928 -12.96089,-33.8731 -1.60926,-5.57568 2.85248,-15.87935 -0.51958,-18.94526 z m -24.85938,0.14648 c -9.21109,7.92697 0.83208,34.25595 1.84524,32.58497 -4.45756,-10.08939 -7.01069,-23.11554 -1.84524,-32.58497 z M 136.4511,191.80101 c 2.17649,9.36614 16.59784,18.53703 27.90301,18.76768 5.81792,0.0488 25.96576,4.6831 9.54848,-0.29594 -12.09893,-0.46331 -25.04843,-2.82279 -33.09537,-12.84213 -1.60348,-1.75089 -3.10554,-3.60749 -4.35612,-5.62961 z m 133.70117,110.37891 c 5.25164,8.50326 16.69589,18.28686 20.82031,29.65234 3.33212,11.77019 2.65974,24.32574 3.6583,36.371 7.72369,10.04433 3.1993,26.73953 -2.57823,25.19124 16.7979,0.27349 3.94651,-19.70283 3.54973,-28.56114 -1.11251,-15.37429 0.5377,-32.36623 -10.03031,-44.87975 -4.41068,-6.508 -9.59829,-12.4906 -15.4198,-17.77369 z m 16.05078,75.74805 c 1.30067,8.6932 11.02622,29.86729 -6.36332,26.29882 -20.73434,-5.3772 14.4493,9.42496 11.38722,-5.94613 0.40828,-6.9297 -3.02348,-15.0508 -5.0239,-20.35269 z m -12.15234,10.46679 c 0.63946,6.76712 -3.00581,22.58253 -14.07422,12.82227 -7.90387,-11.80075 -1.79439,5.77707 6.25351,3.47695 9.62364,2.2434 8.30017,-10.54901 7.82071,-16.29922 z m -30.38477,-3.70703 c -11.66999,13.18925 19.18401,20.64367 17.00796,1.87311 0.98575,13.42355 -24.81755,14.03176 -17.03907,-0.89452 2.97907,2.11987 4.81282,0.14767 0.0311,-0.97859 z m -23.16601,-51.98242 c 5.56583,3.24712 21.26532,-0.48984 18.81679,13.16422 0.9182,14.61521 12.12582,26.05249 6.75155,40.52914 -5.61015,11.67492 6.18495,-3.69607 2.86207,-9.28359 -2.1409,-13.11121 -8.25102,-25.21063 -9.72696,-38.6254 -0.005,-7.56547 -12.68711,-4.4566 -18.70345,-5.78437 z M 156.99014,139.74242 c -19.43781,6.54043 -23.64929,30.05603 -22.0898,48.07363 -0.74926,13.53894 -8.25004,26.44133 -8.96654,40.36302 -0.042,15.01188 3.57369,29.38248 4.18174,44.74158 2.63367,15.11627 6.98134,34.86887 23.691,39.99002 5.26324,0.46364 28.65329,5.76255 11.90446,0.63919 -16.94196,0.72869 -29.23523,-12.84015 -31.87118,-28.84652 -5.58458,-14.5485 -1.45372,-31.26902 -6.57501,-45.29738 -1.68639,-16.25814 4.52809,-32.09783 9.26856,-47.35467 -2.15916,-18.33707 0.24072,-42.66684 19.64656,-50.7548 1.74223,0.35958 0.85433,-0.84875 0.81021,-1.55407 z m 93.11914,86.1543 c -1.92376,10.74217 0.93391,25.23834 7.55274,32.34765 -6.14494,-9.55614 -7.74903,-22.489 -7.55274,-32.34765 z m 109.17383,-55.91407 c -7.87118,17.26228 -27.07416,25.12251 -43.25864,32.77045 -10.86096,3.54906 -5.19476,4.7693 2.14407,0.45634 15.91553,-7.68917 34.839,-15.61525 42.31965,-32.84202 l -0.75657,-0.24157 z m -3.82812,19.82813 c 8.13308,7.9727 16.32271,20.80798 14.91874,33.87355 -0.34444,17.92188 3.21713,-18.45756 -5.52269,-23.63616 -2.51718,-3.90504 -5.63712,-7.48269 -9.39605,-10.23739 z m -58.92383,-13.73633 c -5.71891,10.4636 11.05766,23.80169 10.78976,33.51738 -4.06501,8.97031 1.16196,29.13473 6.02996,30.49788 -9.61693,-10.59624 -2.81099,-26.58728 -5.63458,-36.58274 -6.42511,-7.67662 -10.86041,-17.32854 -11.18514,-27.43252 z m 37.31445,57.79883 c -19.01056,5.01333 -36.98765,13.26815 -54.48437,22.10937 -14.29643,-0.2163 -28.56708,1.94689 -42.38282,5.52539 9.42879,0.68345 23.29187,-4.69762 34.65932,-4.16731 12.23274,1.5663 21.588,-8.60612 32.84262,-11.77691 8.94888,-4.81405 22.445,-7.03553 29.36525,-11.69054 z m -96.5957,27.61719 c -12.35576,4.87906 -24.41659,10.11934 -37.07813,14.31645 -7.20319,2.22304 -13.81605,27.75969 -7.7027,12.24318 4.58713,-14.27513 20.10449,-13.9135 31.24206,-19.5973 3.62553,-2.9533 11.50362,-3.23187 13.53877,-6.96233 z m -34.34375,16.96679 c -12.26975,15.16259 -25.6059,29.57655 -37.18111,45.22913 -4.37545,5.82078 7.98728,20.17925 1.43897,7.2885 -1.05321,-14.24824 15.63169,-22.74134 22.30721,-34.31662 3.55083,-5.84777 13.19575,-12.71344 13.43493,-18.20101 z m -18.52539,38.27149 c -5.25616,9.36026 -28.20995,23.57237 -12.78051,32.63763 6.56031,4.28435 8.91645,-5.16139 13.12213,-8.41198 1.43791,-2.67447 9.63193,-9.1099 6.24215,-9.48142 -4.99993,5.8919 -9.99986,11.7838 -14.99979,17.6757 -19.65415,-4.24803 1.97665,-21.35027 7.75291,-29.56419 3.48737,-1.16331 1.53813,-1.97476 0.66311,-2.85574 z m 7.12695,14.10742 c -7.77605,6.42794 -21.36698,29.17723 -2.79939,28.84303 6.94614,-1.41343 11.27399,-17.57127 4.04987,-4.94002 -10.11578,11.89916 -16.83891,-6.42532 -7.8353,-13.32269 0.84688,-3.44587 8.59228,-7.95788 6.58482,-10.58032 z m 10.31836,6.91797 c -7.27431,6.13306 -9.28381,27.79783 4.76275,17.27618 5.77487,-5.7307 2.56199,-14.37124 0.59381,-2.7434 -9.11952,11.28217 -13.23294,-3.05273 -6.53039,-10.09528 -0.29712,-1.95419 3.36618,-2.80885 1.17383,-4.4375 z m 21.53516,-9.19531 c -4.28967,4.09323 -21.41605,25.4324 -8.43991,11.82596 1.53647,-3.53657 10.33407,-8.67402 8.43991,-11.82596 z m 33.88867,-30.63868 c -12.79041,0.51098 -16.03236,17.69624 -26.49175,24.74484 -4.8272,3.22349 -10.86556,10.45538 -1.62686,3.30028 10.90396,-8.08587 18.60215,-25.24797 28.11861,-28.04512 z m 6.23437,-179.35937 c 8.8208,7.65739 26.17095,-0.81827 38.14063,2.65143 8.61105,1.23358 16.15473,6.61498 25.16931,5.15036 20.87184,3.08851 30.28151,25.53748 32.57098,44.17284 12.31436,19.0934 22.63932,41.09068 21.27394,64.3221 0.43824,16.72885 2.21848,34.29938 -3.60016,50.31069 -20.14206,23.76147 -55.02355,28.33077 -84.21404,22.7526 -11.92893,-2.13187 -23.57191,-5.68726 -34.83869,-10.11979 6.33173,5.74632 20.14623,7.66963 29.7869,10.41849 30.41126,6.8917 66.13467,3.20137 88.83153,-20.14724 7.71625,-13.56786 5.37349,-30.28562 5.67417,-45.32619 -0.0123,-16.14572 -0.86847,-32.61126 -8.13387,-47.42143 -4.90147,-13.2218 -15.15239,-23.8333 -16.39704,-38.23506 -4.15726,-17.50047 -19.38556,-34.72199 -38.82214,-32.09922 -11.34566,-4.30815 -23.31518,-7.02599 -35.59784,-5.29985 -6.7452,1.34605 -13.3194,1.41494 -19.84368,-1.12973 z m -96.53711,17.56055 c -7.17537,-3.01854 -9.65987,12.5571 -5.10156,1.5645 5.3995,-4.33181 23.45514,8.60502 9.6781,-0.10483 l -2.46272,-0.93742 -2.11382,-0.5222 z m 15.29102,-5.89844 c -6.80392,4.83638 -6.20096,22.18193 -5.78361,24.96903 0.57607,-8.19674 0.27621,-18.8932 5.78361,-24.96903 z m 96.72266,-0.25586 c -7.9169,-2.30238 -23.78942,14.61423 -9.00331,3.48059 5.28361,-7.89048 24.6293,6.75302 11.01376,-3.08521 z m -105.94727,28.41406 c -5.39463,7.71219 24.63138,6.0413 15.4146,2.34735 -5.16748,0.63159 -10.90966,0.64536 -15.4146,-2.34735 z m 54.4707,-6.93359 c -9.13124,-2.70852 -20.65681,15.61479 -7.17036,6.45208 8.7788,-9.22457 21.47292,6.32043 27.03755,-0.0947 -5.64313,-4.25214 -12.70188,-7.12 -19.86719,-6.35742 z m 6.65625,71.73828 c -1.59043,10.2789 -18.27784,23.75192 -27.47833,11.95177 -5.08613,-6.56092 4.42183,9.412 10.18732,5.39979 7.8491,-1.25804 17.20222,-8.69319 17.29101,-17.35156 z M 215.9335,179.05297 c 5.19338,4.29656 12.27253,13.64793 16.02735,18.83984 -3.75493,-7.31906 -8.53659,-14.88677 -16.02735,-18.83984 z m -13.36133,1.12695 c -4.74817,2.47859 -8.58996,22.1568 -3.84653,8.05202 -0.14625,-2.64571 5.54074,-6.28562 3.84653,-8.05202 z m 12.34961,12.73242 c -10.77502,4.10115 2.64563,11.58128 1.48484,2.02072 -0.23224,-0.67632 -0.60283,-1.85007 -1.48484,-2.02072 z m 0.0371,0.28125 c 6.6704,9.39202 -12.34462,7.20836 0,0 z m -3.17364,6.64613 c -4.04387,-11.75595 13.7321,-4.0028 0,0 z m -2.95722,-1.3141 c -7.16112,0.0761 -5.68504,1.56737 0,0 z m -4.83975,0.26155 c 1.58554,0.33482 3.4121,0.74652 4.91651,-0.15338 m -4.98301,-5.54567 c -1.37051,6.19639 -0.29607,7.00744 0.11718,0.36718 7.2522,7.74239 6.37262,5.55991 -0.11718,-0.36718 z m 4.98301,5.54567 c -2.03255,-5.04809 -8.45142,-7.99468 -4.91651,0.15338 m 34.57803,18.45525 c -8.39216,11.87864 -24.82331,15.04141 -38.13476,10.79687 7.01505,6.14113 24.8098,3.37829 33.31853,-3.75451 0.84342,-1.48414 8.27332,-5.6359 4.81623,-7.04236 z m -15.17772,-114.5957 c -17.7245,0.0852 -34.27755,11.59401 -41.81055,27.1367 -8.3575,2.74374 -27.65659,-9.2624 -25.28574,9.30829 5.52841,10.92566 22.04724,12.8641 22.33534,28.19068 4.97597,12.01681 11.59827,24.45305 14.8784,36.38732 -0.70967,14.21922 6.58643,26.39312 7.32073,40.24417 8.55295,13.52843 30.08475,7.047 36.80675,-5.18897 5.65958,-14.4585 11.05556,-28.95604 24.1171,-38.87378 12.48143,-9.07984 7.28522,-28.19155 12.54546,-38.52747 13.96779,-3.45413 18.92319,-18.50931 14.96371,-31.03767 -7.31906,-12.52286 -23.94898,0.39232 -27.98897,-13.91489 -5.39651,-14.61229 -23.64813,-12.57739 -36.30518,-13.76432 l -1.57703,0.04 z m 0.0566,1.46289 c 12.63095,1.06351 31.08193,-1.38907 36.64946,13.08262 6.81532,5.27177 0.51266,13.21495 11.78495,8.14656 16.65966,-4.6095 20.2213,14.75423 14.49976,25.73285 -7.31973,8.37904 -20.51019,8.32776 -16.06306,22.76648 1.32245,17.19082 -12.65215,27.83687 -22.82389,39.31128 -8.34516,12.18062 -8.28187,32.6342 -26.40006,36.06027 -12.80392,4.89316 -24.74004,-7.61858 -20.18425,-20.311 -8.68653,-10.49203 -2.39292,-24.60425 -9.05232,-35.11853 -5.28457,-10.88965 -9.42559,-22.28046 -14.28318,-33.349 -0.49591,-12.25988 -16.40359,-11.97617 -19.86141,-21.56553 -2.31145,-15.80575 14.47335,-5.95402 20.93915,-6.60763 9.39599,-2.82598 10.97478,-17.44062 21.50266,-21.15676 6.93023,-4.42945 15.10068,-6.70847 23.29219,-6.99161 z" />
      <g
         id="g1158"
         transform="matrix(0.97765412,-0.13932764,0.3012452,0.75491866,15.719247,13.847283)"
         style="opacity:1;fill:#ffffff">
        <path
           style="color:#000000;font-style:normal;font-variant:normal;font-weight:normal;font-stretch:normal;font-size:medium;line-height:normal;font-family:sans-serif;font-variant-ligatures:normal;font-variant-position:normal;font-variant-caps:normal;font-variant-numeric:normal;font-variant-alternates:normal;font-variant-east-asian:normal;font-feature-settings:normal;font-variation-settings:normal;text-indent:0;text-align:start;text-decoration:none;text-decoration-line:none;text-decoration-style:solid;text-decoration-color:#000000;letter-spacing:normal;word-spacing:normal;text-transform:none;writing-mode:lr-tb;direction:ltr;text-orientation:mixed;dominant-baseline:auto;baseline-shift:baseline;text-anchor:start;white-space:normal;shape-padding:0;shape-margin:0;inline-size:0;clip-rule:nonzero;display:inline;overflow:visible;visibility:visible;isolation:auto;mix-blend-mode:normal;color-interpolation:sRGB;color-interpolation-filters:linearRGB;solid-color:#000000;solid-opacity:1;vector-effect:none;fill:#ffffff;fill-opacity:1;fill-rule:nonzero;stroke:none;stroke-width:0.854121;stroke-linecap:butt;stroke-linejoin:miter;stroke-miterlimit:4;stroke-dasharray:none;stroke-dashoffset:0;stroke-opacity:1;paint-order:markers fill stroke;color-rendering:auto;image-rendering:auto;shape-rendering:auto;text-rendering:auto;enable-background:accumulate;stop-color:#000000;stop-opacity:1"
           d="m 100.03589,220.20518 c 1.17104,0 2.11379,1.09133 2.11379,2.44693 v 19.05364 c 0,1.35559 -0.94275,2.44692 -2.11379,2.44692 -1.171042,0 -2.113794,-1.09133 -2.113794,-2.44692 l 2.133044,-7.78233 -2.133044,-11.27131 c -0.252067,-1.33196 0.942752,-2.44693 2.113794,-2.44693 z"
           id="path1160"
           sodipodi:nodetypes="ssssscss" />
        <path
           style="color:#000000;font-style:normal;font-variant:normal;font-weight:normal;font-stretch:normal;font-size:medium;line-height:normal;font-family:sans-serif;font-variant-ligatures:normal;font-variant-position:normal;font-variant-caps:normal;font-variant-numeric:normal;font-variant-alternates:normal;font-variant-east-asian:normal;font-feature-settings:normal;font-variation-settings:normal;text-indent:0;text-align:start;text-decoration:none;text-decoration-line:none;text-decoration-style:solid;text-decoration-color:#000000;letter-spacing:normal;word-spacing:normal;text-transform:none;writing-mode:lr-tb;direction:ltr;text-orientation:mixed;dominant-baseline:auto;baseline-shift:baseline;text-anchor:start;white-space:normal;shape-padding:0;shape-margin:0;inline-size:0;clip-rule:nonzero;display:inline;overflow:visible;visibility:visible;isolation:auto;mix-blend-mode:normal;color-interpolation:sRGB;color-interpolation-filters:linearRGB;solid-color:#000000;solid-opacity:1;vector-effect:none;fill:#ffffff;fill-opacity:1;fill-rule:nonzero;stroke:none;stroke-width:0.854121;stroke-linecap:butt;stroke-linejoin:miter;stroke-miterlimit:4;stroke-dasharray:none;stroke-dashoffset:0;stroke-opacity:1;paint-order:markers fill stroke;color-rendering:auto;image-rendering:auto;shape-rendering:auto;text-rendering:auto;enable-background:accumulate;stop-color:#000000;stop-opacity:1"
           d="m 100.03516,219.77734 c -1.436373,0 -2.541019,1.3214 -2.541019,2.875 v 19.05274 c 0,1.55359 1.104646,2.875 2.541019,2.875 1.43636,0 2.54101,-1.32141 2.54101,-2.875 v -19.05274 c 0,-1.5536 -1.10465,-2.875 -2.54101,-2.875 z m 0,0.85547 c 0.90571,0 1.6875,0.86193 1.6875,2.01953 v 19.05274 c 0,1.15759 -0.78179,2.02148 -1.6875,2.02148 -0.905719,0 -1.685551,-0.86389 -1.685551,-2.02148 v -19.05274 c 0,-1.1576 0.779832,-2.01953 1.685551,-2.01953 z"
           id="path1162" />
      </g>
      <rect
         style="fill:#000000;fill-opacity:1;stroke:#000000;stroke-width:0.710856;stroke-miterlimit:4;stroke-dasharray:none;paint-order:markers fill stroke;stop-color:#000000"
         id="rect1164"
         width="17.520813"
         height="12.491256"
         x="277.76758"
         y="-5.4110842"
         ry="1.8300101"
         transform="matrix(0.78510321,0.61936496,-0.63513211,0.77240352,0,0)" />
      <rect
         style="fill:#000000;fill-opacity:1;stroke:#000000;stroke-width:0.502708;stroke-miterlimit:4;stroke-dasharray:none;paint-order:markers fill stroke;stop-color:#000000"
         id="rect1166"
         width="2.8521426"
         height="2.3390934"
         x="215.34598"
         y="179.10643"
         ry="1.1695467" />
      <rect
         style="fill:#000000;fill-opacity:1;stroke:#000000;stroke-width:0.502708;stroke-miterlimit:4;stroke-dasharray:none;paint-order:markers fill stroke;stop-color:#000000"
         id="rect1168"
         width="5.7017899"
         height="3.5816514"
         x="220.4572"
         y="182.93414"
         ry="1.1695457" />
      <rect
         style="fill:#000000;fill-opacity:1;stroke:#000000;stroke-width:0.502708;stroke-miterlimit:4;stroke-dasharray:none;paint-order:markers fill stroke;stop-color:#000000"
         id="rect1170"
         width="2.6304388"
         height="1.2388508"
         x="223.34962"
         y="186.03091"
         ry="0.61942542" />
      <rect
         style="fill:#000000;fill-opacity:1;stroke:#000000;stroke-width:0.502708;stroke-miterlimit:4;stroke-dasharray:none;paint-order:markers fill stroke;stop-color:#000000"
         id="rect1172"
         width="2.5328169"
         height="0.55754322"
         x="224.3864"
         y="186.97395"
         ry="0.27877161" />
      <g
         id="g1178"
         transform="matrix(1.4649964,-0.1709494,0.45141031,0.92625476,-24.716559,-22.51941)"
         style="opacity:1;fill:#ffffff">
        <path
           style="color:#000000;font-style:normal;font-variant:normal;font-weight:normal;font-stretch:normal;font-size:medium;line-height:normal;font-family:sans-serif;font-variant-ligatures:normal;font-variant-position:normal;font-variant-caps:normal;font-variant-numeric:normal;font-variant-alternates:normal;font-variant-east-asian:normal;font-feature-settings:normal;font-variation-settings:normal;text-indent:0;text-align:start;text-decoration:none;text-decoration-line:none;text-decoration-style:solid;text-decoration-color:#000000;letter-spacing:normal;word-spacing:normal;text-transform:none;writing-mode:lr-tb;direction:ltr;text-orientation:mixed;dominant-baseline:auto;baseline-shift:baseline;text-anchor:start;white-space:normal;shape-padding:0;shape-margin:0;inline-size:0;clip-rule:nonzero;display:inline;overflow:visible;visibility:visible;isolation:auto;mix-blend-mode:normal;color-interpolation:sRGB;color-interpolation-filters:linearRGB;solid-color:#000000;solid-opacity:1;vector-effect:none;fill:#ffffff;fill-opacity:1;fill-rule:nonzero;stroke:none;stroke-width:0.854121;stroke-linecap:butt;stroke-linejoin:miter;stroke-miterlimit:4;stroke-dasharray:none;stroke-dashoffset:0;stroke-opacity:1;paint-order:markers fill stroke;color-rendering:auto;image-rendering:auto;shape-rendering:auto;text-rendering:auto;enable-background:accumulate;stop-color:#000000;stop-opacity:1"
           d="m 100.03589,220.20518 c 1.17104,0 2.11379,1.09133 2.11379,2.44693 v 19.05364 c 0,1.35559 -0.94275,2.44692 -2.11379,2.44692 -1.171042,0 -2.113794,-1.09133 -2.113794,-2.44692 l 2.133044,-7.78233 -2.133044,-11.27131 c -0.252067,-1.33196 0.942752,-2.44693 2.113794,-2.44693 z"
           id="path1174"
           sodipodi:nodetypes="ssssscss" />
        <path
           style="color:#000000;font-style:normal;font-variant:normal;font-weight:normal;font-stretch:normal;font-size:medium;line-height:normal;font-family:sans-serif;font-variant-ligatures:normal;font-variant-position:normal;font-variant-caps:normal;font-variant-numeric:normal;font-variant-alternates:normal;font-variant-east-asian:normal;font-feature-settings:normal;font-variation-settings:normal;text-indent:0;text-align:start;text-decoration:none;text-decoration-line:none;text-decoration-style:solid;text-decoration-color:#000000;letter-spacing:normal;word-spacing:normal;text-transform:none;writing-mode:lr-tb;direction:ltr;text-orientation:mixed;dominant-baseline:auto;baseline-shift:baseline;text-anchor:start;white-space:normal;shape-padding:0;shape-margin:0;inline-size:0;clip-rule:nonzero;display:inline;overflow:visible;visibility:visible;isolation:auto;mix-blend-mode:normal;color-interpolation:sRGB;color-interpolation-filters:linearRGB;solid-color:#000000;solid-opacity:1;vector-effect:none;fill:#ffffff;fill-opacity:1;fill-rule:nonzero;stroke:none;stroke-width:0.854121;stroke-linecap:butt;stroke-linejoin:miter;stroke-miterlimit:4;stroke-dasharray:none;stroke-dashoffset:0;stroke-opacity:1;paint-order:markers fill stroke;color-rendering:auto;image-rendering:auto;shape-rendering:auto;text-rendering:auto;enable-background:accumulate;stop-color:#000000;stop-opacity:1"
           d="m 100.03516,219.77734 c -1.436373,0 -2.541019,1.3214 -2.541019,2.875 v 19.05274 c 0,1.55359 1.104646,2.875 2.541019,2.875 1.43636,0 2.54101,-1.32141 2.54101,-2.875 v -19.05274 c 0,-1.5536 -1.10465,-2.875 -2.54101,-2.875 z m 0,0.85547 c 0.90571,0 1.6875,0.86193 1.6875,2.01953 v 19.05274 c 0,1.15759 -0.78179,2.02148 -1.6875,2.02148 -0.905719,0 -1.685551,-0.86389 -1.685551,-2.02148 v -19.05274 c 0,-1.1576 0.779832,-2.01953 1.685551,-2.01953 z"
           id="path1176" />
      </g>
    </g>
    <path
       style="fill:#426ef2;fill-opacity:0.387629;stroke:#000000;stroke-width:0.264583px;stroke-linecap:butt;stroke-linejoin:miter;stroke-opacity:1;filter:url(#filter1377)"
       d="m 178.42712,227.34241 -2.98518,2.32049 -4.70415,2.31949 -8.16529,9.62321 -4.386,11.92075 -1.22035,9.87521 -0.62883,12.01448 1.55076,3.98495 2.32688,4.09898 6.07206,6.69363 8.64266,4.82408 8.92832,2.3622 8.11755,0.87658 4.53662,0.69839 4.93841,1.5438 0.57473,2.08075 -1.04066,12.18898 0.93561,12.55234 1.02912,6.6703 4.86006,10.39252 3.77046,5.27483 4.63168,3.20802 6.60392,3.45049 6.96952,3.0535 1.91169,1.39385 25.56716,-10.5809 1.15153,-1.07531 7.41608,-1.14425 16.58826,-2.90679 15.05998,-1.02738 3.31851,-0.44696 26.16612,-11.48747 8.82317,-3.90567 -0.99965,-0.4998 -2.58284,-2.57545 -3.38624,-8.72972 -0.55835,-11.47262 0.51123,-4.76609 0.35391,-7.49362 -3.26761,-5.11263 -1.94117,-3.03972 -4.52689,-8.87646 c 0,0 0.25625,-1.26303 0.0185,1.8e-4 -0.23773,1.26321 0.31231,-0.0189 0.31231,-0.0189 l 0.88585,1.90504 3.95864,7.84262 1.59478,2.22874 2.99326,3.52585 0.46252,2.28386 2.12349,-0.0461 15.73559,-7.24922 14.51184,-7.25784 13.78011,-11.56696 5.78006,-9.42404 -1.3598,-6.39379 -1.89725,-8.35261 -4.64547,-11.12079 -8.83875,-10.84505 -7.78391,-5.32434 -7.45255,-2.45915 -5.41586,0.19859 -8.21449,-1.71117 -11.66233,-3.52208 -9.93566,-1.1909 -9.89108,0.9772 -8.26855,0.96457 -8.06841,-1.26794 -2.56519,-1.34241 -2.52838,-0.74028 1.88806,3.1107 2.49214,2.78578 4.54419,0.68434 6.13767,-0.40942 4.74377,0.79889 4.59751,1.98076 3.44908,6.87347 0.11192,5.41401 -0.15185,5.27036 -1.73262,5.36505 -2.00956,2.74634 -4.4826,4.14406 -3.57902,2.35822 -3.00178,1.37089 -1.49479,1.39096 -2.51153,4.30319 -0.0217,4.37751 -0.24498,3.15653 0.4023,0.30565 0.034,3.50129 -1.10432,6.88327 -2.45814,7.33156 -3.9738,5.5102 -3.13682,3.10708 -2.6448,2.41986 -1.57007,1.59101 -2.6389,3.05804 -2.36196,3.06604 -1.95876,2.26865 -3.53571,6.33504 -6.20676,13.65369 -3.46191,7.55092 -4.34955,4.67389 -5.90357,3.85746 -8.87076,2.24044 -9.63286,-2.11 -5.1281,-5.01147 -0.79988,-2.40437 -0.88801,-4.8123 -0.47344,-5.67997 c 0,0 -2.10636,-7.17203 -2.24394,-7.41884 -0.13757,-0.2468 -2.57907,-10.59975 -2.57907,-10.59975 l -0.27252,-5.31004 -2.34109,-12.15153 -4.15838,-9.13057 -0.75632,-0.89642 -0.83827,-0.0151 -1.28615,-0.21619 -4.46024,-0.74376 -4.07963,-1.55509 -2.14684,-1.36252 -1.80388,-1.9519 -1.04901,-3.00354 -0.13772,-1.31337 -0.025,-0.94518 -0.01,-0.20019 -0.0455,-0.74372 0.27827,-3.20599 1.6394,-2.68622 1.25515,-1.077 1.18186,-0.74088 1.67532,-0.65467 0.75316,-0.14288 0.72592,-0.19657 -0.76831,-2.38916 -1.02712,-3.01942 -1.98064,-4.66388 c 0,0 -4.72133,-3.87567 -4.75423,-3.91034 -0.0329,-0.0347 -5.9308,-4.16896 -5.9308,-4.16896 l -3.98834,-2.90892 -2.28292,-2.44776 z"
       id="path1317" />
    <path
       style="fill:#000000;stroke:#000000;stroke-width:0.264583px;stroke-linecap:butt;stroke-linejoin:miter;stroke-opacity:1"
       d="m 201.10056,257.58761 4.4728,9.59848 -0.1295,-3.08611 z"
       id="path1492" />
    <g
       aria-label="Fantuzzo"
       id="text1494"
       style="font-style:normal;font-weight:normal;font-size:50.9839px;line-height:1.25;font-family:sans-serif;white-space:pre;fill:#000000;fill-opacity:1;stroke:none;filter:url(#filter1903)"
       transform="translate(0,33.989432)">
      <path
         d="m 186.12925,17.503535 q -4.12232,1.637366 -7.04944,-1.588669 -0.80441,3.775585 -2.90432,6.913712 -2.05253,3.119306 -5.2272,4.380267 -6.30194,2.5031 -12.91852,2.004241 -1.84594,-0.08967 -2.18471,-0.94257 -0.24466,-0.61598 0.58166,-1.71221 0.77895,-1.077409 1.44231,-1.340894 0.18953,-0.07528 1.14561,-0.01616 0.93725,0.01174 2.07311,0.109161 1.11705,0.05004 1.34422,0.06953 4.01383,0.161196 8.79952,-1.739654 1.9427,-0.771633 3.10271,-2.823272 1.18856,-2.117843 1.45028,-4.635565 0.24289,-2.565104 0.0593,-4.960826 -0.20237,-2.4431048 -0.74683,-4.3663252 l -4.45401,1.7691085 q -1.27934,0.5081482 -1.63692,-0.3921299 -0.28231,-0.7107458 0.54402,-1.8069756 0.87371,-1.1150501 1.63184,-1.4161749 l 3.07989,-1.2233198 q -0.58276,-1.7434306 -0.90271,-2.5489426 -0.58343,-1.46887472 -1.28952,-3.1084614 -0.65871,-1.658407 -1.49655,-3.629675 -0.85665,-2.0186512 -1.28952,-3.1084615 -3.4552,3.7312988 -9.0464,5.9520946 -4.45401,1.76910853 -10.50332,1.593518 -0.18045,0.23625064 -0.8757,1.9387177 -0.69525,1.7024671 -1.87982,2.1729746 -0.2843,0.1129219 -0.92818,0.1492333 L 145.8424,2.9491431 q -0.20769,-0.2466578 -0.26415,-0.3888069 -0.0753,-0.1895323 -0.0934,-0.5114712 1.88979,-6.291313 3.87988,-7.0817658 0.37906,-0.1505624 3.8626,0.056687 3.69189,0.1793517 7.8616,-1.476835 3.26943,-1.298601 5.79314,-3.507887 0.12332,-0.1038432 1.67988,-1.7095512 1.60394,-1.624527 2.03039,-1.79391 0.94766,-0.376406 1.65442,0.988625 0.75414,1.34621 0.80927,2.037471 0.54579,1.3741086 1.75095,4.1320684 1.20517,2.7579597 1.76978,4.1794514 0.77163,1.94270531 1.47573,4.4059597 l 4.7383,-1.8820304 q 0.47384,-0.18820304 1.0132,-0.0732874 0.52055,0.0675326 0.68994,0.49398006 0.43286,1.08981024 -0.78161,2.17563304 -1.23328,1.0384396 -2.72098,1.574486 -1.45913,0.469843 -2.15106,0.7995306 0.3939,1.544156 0.53981,3.8451116 l 0.18953,-0.075281 q 0.45501,-0.2355861 1.28709,0.2019331 0.11293,0.2842983 0.2057,1.0703259 0.12133,0.719823 0.2719,1.098888 0.5646,1.421492 2.14374,2.220584 1.6077,0.732889 3.0292,0.16828 0.28429,-0.112922 0.76787,-0.414711 0.46475,-0.349173 0.70166,-0.443274 1.18458,-0.470508 1.56099,0.477153 0.31994,0.805512 -1.08472,2.241172 -1.3761,1.369457 -2.32377,1.745863 z"
         style="font-style:normal;font-variant:normal;font-weight:bold;font-stretch:normal;font-size:50.9839px;font-family:UnPilgi;-inkscape-font-specification:'UnPilgi, Bold';font-variant-ligatures:normal;font-variant-caps:normal;font-variant-numeric:normal;font-variant-east-asian:normal"
         id="path1528" />
      <path
         d="m 210.29482,15.244544 q -2.27774,0.558685 -3.65484,-1.203345 -2.7318,2.559882 -5.50471,3.240021 -2.67387,0.655847 -5.10576,-0.270017 -2.4319,-0.925865 -3.88094,-3.195202 -2.10023,2.352477 -3.78378,2.765418 -0.49516,0.121453 -1.21268,0.192455 -0.0327,-0.989388 0.36624,-1.71718 0.33727,-0.765163 0.6353,-1.048245 0.29803,-0.283082 1.34068,-1.168764 1.1669,-1.021149 1.45559,-1.984377 0.28869,-0.9632279 0.35689,-2.3973266 0.45874,-3.0522467 3.11673,-5.6990159 2.69537,-2.7084306 5.76537,-3.46144078 3.66419,-0.89875412 6.30069,1.2893049 -0.0813,-1.18745272 0.62783,-2.14881082 0.75863,-0.9735034 1.93487,-1.3145073 l 0.66707,0.1513529 q 0.48021,0.4596604 0.62595,1.0538542 0.49796,2.03016205 -0.20648,4.7227156 -0.66708,2.6308921 -0.59701,3.5586188 0.0803,1.3976626 -0.085,2.435632 -0.15041,0.4568558 -0.0654,0.8034689 0.2672,1.0893551 1.22949,1.5882561 0.17939,-1.408873 1.07535,-2.6785386 0.88382,-1.3191816 2.22076,-1.6471053 1.08935,-0.2671972 1.32011,0.6736096 0.14575,0.5941938 -0.40173,1.3584221 -0.398,0.5175825 -0.44845,0.7399377 -0.0626,0.1728395 -0.0906,0.9146465 -0.10558,1.49576 -1.31078,2.788781 -1.1557,1.280876 -2.6907,1.657381 z M 199.19671,2.7430962 q -2.32726,0.5708303 -3.51098,2.5935136 -1.18372,2.0226833 -0.61289,4.3499422 0.57083,2.327259 2.79158,3.462399 2.27026,1.122994 4.59752,0.552164 2.62436,-0.643702 2.95416,-2.509431 0.0757,-0.333533 -0.008,-0.890356 -0.0962,-0.6063393 -0.0579,-0.8782107 0.0131,-0.1606938 0.15322,-1.0874856 0.18966,-0.9389371 0.0682,-1.4340986 -0.51011,-2.0796782 -2.39639,-3.3493513 -1.89842,-1.3191893 -3.9781,-0.8090856 z"
         style="font-style:normal;font-variant:normal;font-weight:bold;font-stretch:normal;font-size:50.9839px;font-family:UnPilgi;-inkscape-font-specification:'UnPilgi, Bold';font-variant-ligatures:normal;font-variant-caps:normal;font-variant-numeric:normal;font-variant-east-asian:normal"
         id="path1530" />
      <path
         d="m 233.95941,11.518293 q -3.99864,0.483182 -4.37785,-2.6549922 -0.2263,-1.8727811 0.90074,-5.2956729 1.17764,-3.42900799 0.98193,-5.0487106 -0.14679,-1.2147769 -1.91834,-1.0007093 -1.56909,0.1896028 -2.30449,2.17859213 -0.74151,1.93837357 -0.69321,4.03808247 0.0989,2.0935926 -0.0213,3.6487611 0.006,0.050616 0.0439,1.6380513 0.0823,1.530704 -0.039,1.802131 -0.19192,0.536738 -1.08634,1.209719 -0.8438,0.666865 -1.45119,0.740259 -1.21478,0.146789 -1.35545,-1.017372 -0.36697,-3.0369422 -0.30793,-5.0982677 0.008,-0.3604262 0.19866,-2.1809057 0.19086,-1.8204794 0.0747,-2.7821779 -0.40367,-3.3406366 -3.03568,-3.0225932 -0.55678,0.067278 -0.72929,2.03960502 -0.13687,0.99227948 -0.22924,1.92782708 -0.0418,0.9294314 -0.23535,1.8772114 -0.19361,0.9477801 -0.50067,1.8065611 -0.31319,0.8081654 -0.88556,1.5962961 -0.57238,0.7881308 -1.4223,1.4043798 -1.12303,0.906025 -2.08473,1.022233 -0.0506,0.0061 -1.28374,0.0011 0.12632,-1.5045524 0.96401,-2.2220329 0.78095,-0.7619799 0.97899,-1.2481023 0.42833,-1.1302083 0.59304,-2.7421087 0.1647,-1.6119005 0.18199,-2.7437946 0.0679,-1.13801047 0.73097,-2.4506469 0.71368,-1.3187527 2.19102,-2.2675911 1.51573,-1.056186 3.3379,-1.2763699 1.6197,-0.195719 2.63033,0.092998 1.06124,0.2826013 1.81542,1.4239836 2.48248,-2.4055198 5.72189,-2.7969578 1.67031,-0.2018352 2.78049,0.4856917 1.15467,0.630795 1.35039,2.2504976 0.23242,1.9233968 -0.94523,5.3524048 -1.13315,3.3722761 -0.93132,5.0425944 0.14068,1.1641613 1.55792,0.9929071 l -0.0122,-0.1012314 q 0.71811,-0.8570951 1.33499,-1.7019578 0.61076,-0.8954783 1.55579,-1.5745755 0.98954,-0.7358291 2.00185,-0.8581535 0.0506,-0.00612 0.31593,0.064534 0.30981,0.013918 0.36043,0.0078 l 0.45217,0.7670378 q -0.12296,0.682469 -0.34545,0.9661287 -0.2225,0.2836596 -0.64746,0.5917841 -0.38046,0.2513926 -0.65357,0.5411684 -0.267,0.3403916 -1.10638,1.4689139 -0.84549,1.0779066 -1.2521,1.5378782 -0.41273,0.4093561 -1.32549,0.9304891 -0.86216,0.515018 -1.87447,0.637342 z"
         style="font-style:normal;font-variant:normal;font-weight:bold;font-stretch:normal;font-size:50.9839px;font-family:UnPilgi;-inkscape-font-specification:'UnPilgi, Bold';font-variant-ligatures:normal;font-variant-caps:normal;font-variant-numeric:normal;font-variant-east-asian:normal"
         id="path1532" />
      <path
         d="m 252.79125,10.777847 q -2.54901,0.03119 -4.91218,-1.4185327 -2.3122,-1.4503491 -3.15658,-3.7854512 l -0.47504,-1.3198675 q -1.00712,1.0320786 -2.52467,2.0194157 -1.46719,0.9357331 -2.63974,0.9500816 -0.45882,0.00561 -1.27574,-0.086364 0.23992,-1.2266412 0.79322,-1.8452645 0.55267,-0.6696034 1.11158,-0.829406 0.5073,-0.2101588 1.21291,-0.8816338 0.75597,-0.7230789 1.30178,-1.9534632 0.54581,-1.23038427 0.77076,-3.6805474 0.22496,-2.4501632 0.27282,-2.7056874 l 1.71675,-9.7086736 q 0.86399,-4.395517 3.6679,-4.429828 1.12156,-0.01373 1.13591,1.158817 0.0299,2.447044 -1.53467,7.9218754 l 9.67499,-1.0361724 q 0.30588,-0.0037 1.17129,-0.116309 0.9164,-0.11319 1.4262,-0.119428 0.40784,-0.005 0.8704,0.295275 0.46256,0.300266 0.46756,0.708106 0.007,0.6117612 -0.95241,1.3373355 -0.90953,0.6739704 -1.57102,0.7840406 l -11.55875,1.2631758 q -0.0429,0.6633649 -0.32942,2.2474905 -0.23618,1.5325217 -0.22558,2.3991831 0.006,0.5098008 0.38182,2.03483629 0.70204,3.20363511 2.5138,5.42492391 1.81175,2.2212888 4.76859,2.1851055 0.30588,-0.00374 1.26328,-0.9332377 1.00837,-0.9301185 2.32262,-1.8639801 1.36461,-0.9854655 2.48617,-0.9991902 1.07058,-0.013101 1.08306,1.0065008 0.006,0.5098008 -0.39661,0.9226322 -0.3525,0.3612276 -1.01087,0.7261982 -0.60739,0.3643468 -0.80944,0.5197824 -0.4041,0.3108713 -1.56416,1.3448215 -1.16069,0.9829701 -1.66675,1.2950891 -0.45445,0.3624752 -1.52067,0.7324366 -1.06559,0.420942 -2.28911,0.435914 z"
         style="font-style:normal;font-variant:normal;font-weight:bold;font-stretch:normal;font-size:50.9839px;font-family:UnPilgi;-inkscape-font-specification:'UnPilgi, Bold';font-variant-ligatures:normal;font-variant-caps:normal;font-variant-numeric:normal;font-variant-east-asian:normal"
         id="path1534" />
      <path
         d="m 280.33681,12.521096 q -2.79143,-0.266403 -3.85198,-2.5698874 -2.69519,1.9450504 -5.79114,1.6495844 -5.27834,-0.503745 -6.12303,-6.6790099 -2.81608,2.1383759 -4.84621,1.9446279 -0.20301,-0.019375 -0.60419,-0.1088777 -0.40119,-0.089503 -0.6042,-0.1088777 0.51027,-1.5901994 2.1805,-2.4551104 1.67022,-0.8649111 2.28432,-1.9330465 1.03233,-1.69402225 1.78732,-6.385016 0.14278,-0.9594688 1.17975,-1.6287379 1.09256,-0.7151786 2.05688,-0.6231483 0.71054,0.067812 0.94725,0.8074201 0.24155,0.688855 0.0625,1.4912202 -0.12341,0.7564556 -0.13078,1.3703388 -1.03655,10.8612041 3.98802,11.3407304 0.71055,0.067812 1.31243,-0.3356871 0.60188,-0.4034989 0.91861,-1.0390732 0.32158,-0.6863275 0.55134,-1.4838491 0.28051,-0.7926778 0.35317,-1.5539771 0.1234,-0.7564557 0.27819,-1.3050545 0.89524,-5.0873327 0.96305,-5.7978787 0.092,-0.9643125 1.13385,-1.6843349 1.09256,-0.7151786 2.10763,-0.6183046 0.50753,0.048437 0.77814,0.4327722 0.32621,0.3384257 0.27778,0.8459586 l -0.25672,2.6899244 q -0.10172,1.06581904 -0.55892,3.1732387 -0.4572,2.1074197 -0.55892,3.1732388 -0.13078,1.3703388 0.31126,2.6416985 0.44204,1.2713596 1.58514,1.6365312 0.73498,-1.2614611 2.15628,-2.201344 1.42615,-0.9906362 2.74574,-0.8647 1.11657,0.1065614 1.01969,1.1216272 -0.0388,0.4060263 -0.32157,0.6863276 -0.28283,0.2803012 -0.76868,0.5412277 -0.43508,0.2657701 -0.60672,0.4542522 -0.11604,0.1425724 -0.29736,0.4325611 -0.18132,0.2899886 -0.24176,0.3866515 -2.01623,2.8805115 -5.41671,2.5559835 z"
         style="font-style:normal;font-variant:normal;font-weight:bold;font-stretch:normal;font-size:50.9839px;font-family:UnPilgi;-inkscape-font-specification:'UnPilgi, Bold';font-variant-ligatures:normal;font-variant-caps:normal;font-variant-numeric:normal;font-variant-east-asian:normal"
         id="path1536" />
      <path
         d="m 297.36048,11.519504 q 1.29543,0.281091 3.70017,1.220246 2.40473,0.939154 3.45104,1.166189 0.7972,0.172979 3.66681,-1.030318 2.93025,-1.242311 4.32533,-0.939598 0.44842,0.0973 0.6825,0.461115 0.29472,0.3248 0.19742,0.77322 -0.10811,0.498245 -1.03504,0.92316 -0.8771,0.435725 -2.38453,0.89119 -1.50743,0.455465 -1.55725,0.444654 -2.23506,0.923625 -3.64942,1.190603 -1.41435,0.266978 -3.30768,-0.143846 -1.14597,-0.248658 -3.34059,-1.194392 -2.15561,-0.885099 -3.30157,-1.133756 -1.04632,-0.227034 -2.27877,-0.0771 -1.18263,0.16075 -1.5314,0.08507 -0.29894,-0.06487 -1.4905,-0.584269 l 1.08251,-1.382391 12.45663,-7.1572853 q -1.63763,-0.1466599 -2.43482,-0.3196387 -2.4414,-0.5297477 -4.64495,-2.1556335 -1.14269,2.6214221 -3.73263,4.4592775 -2.5293,1.7988422 -5.44686,2.2613521 -0.80142,0.086955 -1.34949,-0.031968 -0.34877,-0.075678 -1.22399,-0.3699284 0.85925,-1.7960287 2.11332,-2.0456161 4.464,-0.8573393 6.04336,-5.731673 l 0.82211,-2.5866403 q 0.53915,-0.5612284 1.45526,-0.9363186 0.96594,-0.364279 1.7133,-0.2021113 0.34878,0.075678 1.28275,1.060891 0.98379,0.9960239 2.50484,2.16079523 1.58169,1.12575807 3.37537,1.51496047 2.04281,0.4432583 4.43391,-0.2378235 2.40192,-0.7309063 3.09947,-0.5795498 0.84701,0.18379 0.83009,1.2235239 -1.01107,1.2935527 -14.5267,9.0036033 z"
         style="font-style:normal;font-variant:normal;font-weight:bold;font-stretch:normal;font-size:50.9839px;font-family:UnPilgi;-inkscape-font-specification:'UnPilgi, Bold';font-variant-ligatures:normal;font-variant-caps:normal;font-variant-numeric:normal;font-variant-east-asian:normal"
         id="path1538" />
      <path
         d="m 322.25977,18.307549 q 1.2534,0.431478 3.531,1.646903 2.27761,1.215425 3.28997,1.563926 0.77132,0.265525 3.76252,-0.591968 3.05601,-0.889106 4.40582,-0.424437 0.43386,0.149357 0.62354,0.538174 0.25447,0.357204 0.10511,0.79107 -0.16595,0.482074 -1.13641,0.795038 -0.92226,0.32956 -2.47279,0.604597 -1.55052,0.275038 -1.59873,0.258443 -2.32816,0.654382 -3.76411,0.753186 -1.43594,0.0988 -3.26782,-0.531819 -1.10877,-0.381692 -3.17695,-1.578943 -2.03657,-1.132448 -3.14534,-1.51414 -1.01236,-0.348502 -2.25389,-0.344535 -1.19332,0.02056 -1.53078,-0.0956 -0.28924,-0.09957 -1.41145,-0.755492 l 1.23757,-1.2455 13.21186,-5.642779 q -1.60902,-0.33822 -2.38034,-0.603745 -2.36216,-0.81317 -4.35923,-2.6869033 -1.44302,2.4688583 -4.23112,3.9893963 -2.72329,1.488925 -5.67499,1.605134 -0.80609,-0.0079 -1.33637,-0.190441 -0.33745,-0.116167 -1.17199,-0.511298 1.06448,-1.682523 2.33921,-1.782905 4.53384,-0.326444 6.67545,-4.9812308 l 1.12058,-2.4720157 q 0.6014,-0.4939337 1.55527,-0.7586902 1.00207,-0.2481611 1.72518,7.685e-4 0.33746,0.1161672 1.14909,1.204375 0.85984,1.1048032 2.23337,2.4403621 1.43833,1.3039469 3.17379,1.9013781 1.97651,0.680408 4.43112,0.2852358 2.4712,-0.4433793 3.14611,-0.211045 0.81952,0.2821202 0.68045,1.3126492 -1.15617,1.165681 -15.4847,7.232855 z"
         style="font-style:normal;font-variant:normal;font-weight:bold;font-stretch:normal;font-size:50.9839px;font-family:UnPilgi;-inkscape-font-specification:'UnPilgi, Bold';font-variant-ligatures:normal;font-variant-caps:normal;font-variant-numeric:normal;font-variant-east-asian:normal"
         id="path1540" />
      <path
         d="m 358.47971,27.953007 q -1.11673,1.612444 -2.08513,2.447426 -2.18361,1.947189 -5.9896,2.093703 -3.73792,0.122722 -6.58545,-1.249695 -2.34232,-1.128924 -3.5137,-3.278198 -1.10332,-2.173066 -0.70759,-4.755567 -3.049,0.454759 -4.47277,-0.23145 -0.18371,-0.08854 -0.529,-0.311557 -0.34528,-0.223014 -0.52899,-0.311557 0.87323,-1.107237 2.00983,-1.351783 1.1366,-0.244546 2.43644,-0.240629 1.29983,0.0039 2.13707,-0.441508 0.22633,-0.117304 1.12335,-1.156478 0.96509,-1.062965 1.23569,-1.272125 2.18692,-1.719205 5.81085,-1.840271 3.64607,-0.166994 6.26396,1.094745 2.57196,1.239602 3.48991,3.210134 0.98602,1.946739 0.68711,4.915486 3.67814,0.471027 4.36706,0.803063 1.01041,0.486987 0.54556,1.451471 -0.5534,1.148196 -5.6946,0.42479 z m -8.2768,-9.365826 q 0.0714,0.204191 -0.0614,0.479758 -0.17708,0.367423 -1.15211,0.74644 -0.97502,0.379017 -1.12997,0.700511 -0.35418,0.734846 1.57479,1.664548 2.34232,1.128923 5.45713,2.064198 0.12906,-3.673174 -2.85625,-5.111999 -0.87263,-0.420579 -1.83215,-0.543456 z m -5.96309,3.917566 q -0.81571,1.927313 0.0801,3.943772 0.96389,1.992667 2.84693,2.900234 2.06675,0.996109 4.06439,0.374202 2.04356,-0.599771 3.01753,-2.620595 l 0.0664,-0.137784 q -4.87558,-1.27454 -7.49347,-2.536278 -1.46969,-0.708344 -2.58189,-1.923551 z"
         style="font-style:normal;font-variant:normal;font-weight:bold;font-stretch:normal;font-size:50.9839px;font-family:UnPilgi;-inkscape-font-specification:'UnPilgi, Bold';font-variant-ligatures:normal;font-variant-caps:normal;font-variant-numeric:normal;font-variant-east-asian:normal"
         id="path1542" />
    </g>
    <g
       aria-label="MARKOV BOT"
       id="text2143"
       style="font-style:normal;font-weight:normal;font-size:23.1426px;line-height:1.25;font-family:sans-serif;white-space:pre;fill:#000000;fill-opacity:1;stroke:none;filter:url(#filter2231)">
      <path
         d="m 188.67525,136.26191 c 0.38907,-0.15063 0.70534,-0.29373 0.91619,-0.38913 1.64461,-0.74411 2.50052,-1.7156 2.92263,-3.25286 0.28358,-1.16975 0.2981,-1.81135 0.0219,-3.76926 -0.14967,-0.94834 -0.65742,-4.14776 -0.96678,-5.78588 4.17235,7.25663 4.2793,7.43686 5.08466,9.10456 l 0.67064,-1.26868 c -6.2e-4,-1.85401 0.43346,-4.76834 1.68011,-11.27628 0.0798,0.3449 0.15015,0.6687 0.20891,1.02314 0.0798,0.34489 0.19736,1.05375 0.3641,2.09596 0.83771,5.10764 1.02353,6.19202 1.02906,6.31652 0.0507,0.56127 0.14566,1.05175 0.27922,1.34694 0.1431,0.31627 0.47997,0.44327 0.75407,0.31925 0.10542,-0.0477 0.24348,-0.13557 0.38153,-0.22343 0.38354,-0.27514 1.53214,-1.04884 1.82933,-1.23411 l 0.93375,-0.57489 c 0.0537,-0.0497 0.21285,-0.14711 0.46788,-0.3133 l 0.20428,-0.72746 c -0.3489,0.18327 -0.61346,0.32837 -0.7726,0.42578 -0.34891,0.18326 -0.67672,0.35698 -0.8454,0.4333 -0.67471,0.30528 -1.19734,0.16073 -1.43584,-0.36639 -0.26712,-0.59038 -0.26712,-0.59038 -1.18364,-5.53535 -0.48211,-2.5252 -0.78496,-4.59807 -0.97133,-6.46964 -0.0603,-0.58236 0.0416,-0.80627 0.42114,-0.97799 0.18977,-0.0859 0.47341,-0.18879 0.77613,-0.24956 0.0939,-0.0171 0.34489,-0.0798 0.61699,-0.15215 l 0.33024,-1.57189 c -0.42723,0.0663 -0.62653,0.13107 -0.90063,0.25509 -0.46387,0.20988 -0.76306,0.44686 -1.19879,0.99962 -0.71786,0.88362 -1.1847,1.70448 -1.36589,2.37069 -0.10038,0.45183 -0.10038,0.45183 -1.2557,6.20722 -0.28607,1.5011 -0.54151,3.01374 -0.81803,4.53592 l -0.18369,0.99755 c -1.72417,-3.08087 -4.3807,-7.49257 -5.3226,-8.84449 l -0.41513,0.82286 c -0.84893,0.25709 -1.25908,0.41727 -1.76511,0.64622 -1.41269,0.63918 -2.0939,1.37922 -2.61743,2.86075 -0.61388,1.67483 -0.68758,3.30845 -0.20104,4.38377 0.27666,0.61146 0.64167,1.08134 1.36263,1.72039 l 1.09682,-1.84253 c -0.99257,-0.84637 -1.39975,-1.29717 -1.68594,-1.92972 -0.6201,-1.37051 0.0696,-2.59702 1.904,-3.427 0.50603,-0.22895 0.83184,-0.35097 1.57534,-0.56036 0.77992,4.19394 1.42531,8.65195 1.37215,9.48885 -0.0878,0.92876 -0.47182,1.48353 -1.37847,1.89375 -0.35844,0.16218 -0.48495,0.21942 -1.60797,0.60053 z"
         style="font-style:italic;font-variant:normal;font-weight:500;font-stretch:normal;font-size:23.1426px;font-family:Z003;-inkscape-font-specification:'Z003, Medium Italic';font-variant-ligatures:normal;font-variant-caps:normal;font-variant-numeric:normal;font-variant-east-asian:normal"
         id="path2154" />
      <path
         d="m 206.24158,128.35283 c 0.55638,-0.002 0.81327,-0.0333 1.23338,-0.16308 1.50356,-0.46457 2.29684,-1.58167 4.16863,-5.79333 1.74678,-0.53972 3.05817,-0.92069 3.94101,-1.1208 0.0378,0.279 0.0755,0.558 0.13539,0.83016 0.0241,0.23478 0.10123,0.71961 0.1852,1.22655 0.0856,0.43378 0.14222,0.85227 0.14744,0.94755 0.0498,0.39639 0.11489,0.76383 0.18321,0.98494 0.0888,0.28745 0.37142,0.41813 0.65886,0.32932 0.0884,-0.0273 0.65129,-0.32235 1.69536,-0.86294 l 1.19202,-0.61053 c 0.14795,-0.0699 0.37751,-0.18931 0.7329,-0.37179 l 0.18982,-0.63998 c -0.88607,0.34645 -1.42518,0.56146 -1.60207,0.61612 -0.88445,0.27328 -1.19599,0.12731 -1.43511,-0.64658 -0.43724,-1.41512 -1.48783,-7.87269 -1.86654,-11.607 l -0.37788,-0.12546 c -0.45154,0.8904 -0.48893,0.92618 -0.95327,1.06965 -0.28745,0.0888 -0.40483,0.10086 -1.30816,0.23464 -1.04283,0.15265 -1.63822,0.26395 -2.08044,0.40059 -1.01712,0.31426 -1.92132,1.15075 -2.64628,2.48896 -0.82347,1.48977 -1.03142,2.61979 -0.66933,3.79169 0.16396,0.53066 0.33961,0.86395 0.78096,1.43002 l 1.36295,-1.39001 c -0.67488,-0.92991 -0.94257,-1.40431 -1.0997,-1.91287 -0.38942,-1.26034 0.32908,-2.30589 1.9432,-2.80462 0.24322,-0.0752 0.5375,-0.14185 0.83177,-0.20855 l 0.55117,-0.0976 c 0.31639,-0.0735 0.54433,-0.11974 0.70594,-0.14545 0.36744,-0.0651 0.56645,-0.12657 1.17711,-0.26681 l -2.29489,6.13482 c -0.55975,1.48095 -1.47776,3.60547 -1.89713,4.36482 -0.618,1.13561 -1.18569,1.65013 -2.20281,1.96439 -0.37589,0.11615 -0.58172,0.15552 -1.02072,0.14583 z m 5.80735,-7.07476 2.53899,-6.91269 0.82191,5.87424 z"
         style="font-style:italic;font-variant:normal;font-weight:500;font-stretch:normal;font-size:23.1426px;font-family:Z003;-inkscape-font-specification:'Z003, Medium Italic';font-variant-ligatures:normal;font-variant-caps:normal;font-variant-numeric:normal;font-variant-east-asian:normal"
         id="path2156" />
      <path
         d="m 220.37024,124.25412 c 1.20867,-0.20998 1.20867,-0.20998 1.34501,-0.23633 1.18156,-0.22831 3.21778,-0.6689 3.89067,-0.84606 l 1.51461,-1.18835 c -0.50428,0.0739 -0.98145,0.16607 -0.98145,0.16607 l -1.32228,0.23193 -0.70879,0.11339 c 2.07149,-3.06376 2.16831,-3.2946 2.33343,-6.34355 0.31811,-0.0615 0.45807,0.0529 0.71734,0.66279 1.76736,3.90122 2.75922,5.61879 3.95866,6.82484 1.25805,1.26543 2.73477,1.71078 4.52984,1.36392 1.27244,-0.24587 1.99232,-0.66782 3.08475,-1.8453 l -1.38122,-1.17093 c -0.46807,1.48112 -1.00331,2.12667 -1.88948,2.2979 -1.09067,0.21075 -2.28286,-0.71385 -3.67626,-2.80168 -0.86738,-1.31735 -1.82774,-2.99386 -3.47809,-6.04558 1.21614,-0.65926 1.69045,-1.01019 2.30264,-1.62346 0.93184,-0.91075 1.34338,-2.07452 1.13702,-3.14247 -0.2766,-1.43151 -1.53928,-1.98893 -3.62973,-1.58499 -0.27267,0.0527 -0.83633,0.18517 -1.30911,0.30009 l 0.0413,-0.76223 -1.87893,1.3766 c -3.60792,1.33355 -5.24668,3.46515 -4.73299,6.12366 0.11416,0.59078 0.25697,0.96388 0.66936,1.75631 l 1.71988,-1.34586 c -0.35378,-0.73305 -0.46947,-1.08782 -0.57485,-1.63316 -0.21074,-1.09067 -0.0367,-2.01997 0.54031,-2.81503 0.52646,-0.69099 1.11439,-1.06387 2.53349,-1.52665 l -0.0774,1.4292 c -0.11275,1.97815 -0.22912,3.81558 -0.31476,5.81206 -0.21233,4.02448 -0.71167,4.7338 -3.66996,5.28185 z m 6.40144,-14.20081 0.72711,-0.1405 c 1.38606,-0.26782 2.07783,0.14064 2.31931,1.39036 0.22392,1.15884 -0.18323,2.34533 -1.02341,3.12052 -0.60264,0.54072 -1.11724,0.80515 -2.3179,1.17857 z"
         style="font-style:italic;font-variant:normal;font-weight:500;font-stretch:normal;font-size:23.1426px;font-family:Z003;-inkscape-font-specification:'Z003, Medium Italic';font-variant-ligatures:normal;font-variant-caps:normal;font-variant-numeric:normal;font-variant-east-asian:normal"
         id="path2158" />
      <path
         d="m 254.03658,121.09142 c -0.81824,1.36638 -1.2728,1.77463 -2.05709,1.83805 -0.80736,0.0653 -1.66881,-0.53838 -2.43662,-1.70686 -0.76967,-1.19154 -1.15977,-1.99585 -2.5992,-5.15321 -0.59074,-1.27567 -0.90417,-1.9933 -1.57716,-3.42484 3.28682,-3.28414 4.24768,-4.03516 5.26265,-4.11724 0.41521,-0.0336 0.72068,0.0114 1.38895,0.23596 l 0.71546,-1.77599 c -0.59534,-0.18404 -0.90081,-0.229 -1.31602,-0.19542 -0.57668,0.0466 -0.95764,0.21674 -1.47954,0.65365 -0.32736,0.25866 -0.32736,0.25866 -3.08785,2.87334 l -2.15005,2.12418 c -0.0636,0.0748 -0.32363,0.30479 -0.69152,0.63637 l 0.80966,-4.91806 c 0.65403,-0.23863 0.82924,-0.36889 1.14167,-0.81208 -1.04362,0.0147 -1.55297,0.0327 -2.12965,0.0793 -1.82232,0.14735 -3.25504,0.51861 -4.23083,1.08509 -1.66103,0.99339 -2.49674,2.43083 -2.36244,4.09168 0.0485,0.59975 0.17061,0.96137 0.53204,1.69834 l 1.82623,-0.96031 c -0.44182,-0.86978 -0.62499,-1.4122 -0.68468,-2.15036 -0.13057,-1.61471 0.95192,-2.58453 3.09718,-2.758 0.23067,-0.0187 0.62468,-0.0273 1.11282,-0.0203 l -0.15793,0.91828 c -0.91772,5.87874 -1.17046,7.06008 -1.75871,8.68649 -0.64371,1.51479 -1.47177,2.18542 -2.7922,2.22254 l -0.87656,0.0709 -0.93476,1.07396 3.16023,-0.25554 c 1.61471,-0.13057 1.70698,-0.13803 2.13033,-0.35801 0.44456,-0.24491 0.92966,-0.56275 1.43409,-0.92859 l -2.79114,0.22569 c 2.58665,-3.04177 2.90723,-3.67137 3.41222,-6.61447 l 0.20251,0.49443 c 0.17011,0.38095 0.17198,0.40402 0.5178,1.23512 l 0.52713,1.35047 c 1.25303,3.14921 2.07375,4.6849 2.98065,5.56351 1.10823,1.07129 2.56383,1.55726 4.27081,1.41923 0.76122,-0.0615 1.17084,-0.16433 1.99821,-0.55629 z"
         style="font-style:italic;font-variant:normal;font-weight:500;font-stretch:normal;font-size:23.1426px;font-family:Z003;-inkscape-font-specification:'Z003, Medium Italic';font-variant-ligatures:normal;font-variant-caps:normal;font-variant-numeric:normal;font-variant-east-asian:normal"
         id="path2160" />
      <path
         d="m 260.89253,106.97837 c -1.92029,-0.0455 -4.39576,0.86805 -6.02451,2.19524 -1.88982,1.59879 -2.99128,4.11908 -3.06038,7.03423 -0.0702,2.96142 1.25753,4.56703 3.82564,4.62791 2.12852,0.0505 4.41944,-0.89065 6.21727,-2.51476 1.72733,-1.57949 2.68613,-3.94112 2.75304,-6.76373 0.0691,-2.91514 -1.2355,-4.52021 -3.71106,-4.57889 z m -1.34015,0.87104 c 2.03598,0.0483 3.20122,1.67318 3.13705,4.3801 -0.0422,1.78148 -0.55103,3.71394 -1.34633,5.03774 -1.03653,1.73476 -2.63392,2.71545 -4.34599,2.67487 -2.12852,-0.0505 -3.33838,-1.74588 -3.27092,-4.59162 0.10201,-4.30331 2.63341,-7.57677 5.82619,-7.50109 z"
         style="font-style:italic;font-variant:normal;font-weight:500;font-stretch:normal;font-size:23.1426px;font-family:Z003;-inkscape-font-specification:'Z003, Medium Italic';font-variant-ligatures:normal;font-variant-caps:normal;font-variant-numeric:normal;font-variant-east-asian:normal"
         id="path2162" />
      <path
         d="m 274.51703,109.56789 c 0.56034,-0.18478 0.7328,-0.25599 1.11245,-0.48728 -1.0612,-0.2761 -1.58621,-0.36678 -2.32075,-0.461 -1.79046,-0.22965 -2.95939,-0.0296 -4.19311,0.67544 -1.38616,0.80216 -2.29442,2.06226 -2.47107,3.43953 -0.0795,0.61977 -0.0407,1.04473 0.18647,1.8205 l 1.8682,-0.74033 c -0.20124,-0.79577 -0.23712,-1.24369 -0.15468,-1.88641 0.22671,-1.7675 1.55933,-2.87984 3.1891,-2.6708 0.2525,0.0324 0.59388,0.0995 0.97821,0.19547 -1.19156,4.56027 -2.86408,10.50544 -3.4669,12.29469 0.65745,-0.0323 0.75221,-0.0435 1.74574,-0.14939 0.94708,-0.83514 1.12543,-0.95226 2.82063,-2.34474 4.052,-3.21342 6.14746,-4.99788 7.27643,-6.15967 1.51217,-1.60262 2.34627,-3.01222 2.50821,-4.27472 0.053,-0.41319 0.0365,-0.64862 -0.0682,-1.10537 -0.42376,-0.33434 -0.59856,-0.42675 -1.14358,-0.54333 -0.65511,0.19596 -0.93116,0.34721 -1.518,0.73858 0.53204,0.58155 0.68269,1.04419 0.58259,1.82464 -0.159,1.23955 -1.13437,2.84102 -2.68656,4.39184 -1.44565,1.44783 -2.46159,2.27414 -7.13456,5.78122 z"
         style="font-style:italic;font-variant:normal;font-weight:500;font-stretch:normal;font-size:23.1426px;font-family:Z003;-inkscape-font-specification:'Z003, Medium Italic';font-variant-ligatures:normal;font-variant-caps:normal;font-variant-numeric:normal;font-variant-east-asian:normal"
         id="path2164" />
      <path
         d="m 284.90728,124.14238 c 0.5804,0.15872 0.60272,0.16483 1.28863,0.3764 l 0.75897,0.20756 c 0.13394,0.0366 0.42414,0.11599 0.7752,0.23599 1.48953,0.43135 1.48953,0.43135 1.89134,0.54124 1.54028,0.42123 2.75811,0.44238 4.47752,0.12085 2.28989,-0.47742 3.62007,-1.48121 4.06572,-3.11078 0.18925,-0.69201 0.0314,-1.43095 -0.41064,-2.0077 -0.3711,-0.48537 -0.82557,-0.75361 -1.86044,-1.18058 2.5009,-0.37173 3.93048,-1.30035 4.32119,-2.72901 0.40902,-1.49564 -0.60315,-2.44423 -3.39351,-3.20734 l -0.33485,-0.0916 0.36784,-0.64317 -2.02183,0.28681 c -1.99913,-0.23481 -3.18452,-0.19911 -4.35388,0.12889 -2.08497,0.60544 -3.42754,1.91774 -3.96477,3.88216 -0.1282,0.46878 -0.16902,0.79351 -0.24055,1.49372 l 2.01171,-0.33756 c 0.086,-1.10412 0.10643,-1.26649 0.22853,-1.71294 0.41512,-1.51796 1.14031,-2.32732 2.48023,-2.75263 1.02932,-0.34231 2.01782,-0.35988 3.44858,-0.0646 l -3.45892,6.15581 c -1.9937,3.60546 -2.50749,3.99278 -4.73386,3.62384 z m 8.16085,-4.74998 c 0.43635,0.0713 0.63725,0.12628 0.86048,0.18733 1.76351,0.48228 2.53205,1.5322 2.15355,2.91621 -0.23199,0.84827 -0.85776,1.7328 -1.58677,2.20522 -0.79197,0.52718 -1.78256,0.64016 -2.8987,0.33492 -0.60272,-0.16483 -1.08162,-0.34379 -3.22443,-1.19371 2.71876,-1.34382 3.22245,-1.7819 4.24066,-3.66275 z m 3.09109,-5.51265 c 1.06539,0.31535 1.32106,0.43326 1.59084,0.67498 0.4686,0.39207 0.6264,1.13101 0.42494,1.86766 -0.28692,1.04918 -1.09338,1.98027 -2.01108,2.3531 -0.83242,0.32417 -1.55705,0.34194 -2.76859,0.0346 z"
         style="font-style:italic;font-variant:normal;font-weight:500;font-stretch:normal;font-size:23.1426px;font-family:Z003;-inkscape-font-specification:'Z003, Medium Italic';font-variant-ligatures:normal;font-variant-caps:normal;font-variant-numeric:normal;font-variant-east-asian:normal"
         id="path2166" />
      <path
         d="m 311.62512,118.52695 c -1.79235,-0.69071 -4.4309,-0.66584 -6.41191,0.034 -2.31842,0.86748 -4.20557,2.86841 -5.25412,5.58933 -1.06518,2.76411 -0.35698,4.72353 2.04002,5.64725 1.98671,0.7656 4.46082,0.65257 6.70118,-0.26979 2.15893,-0.90414 3.85826,-2.80383 4.87352,-5.43838 1.04854,-2.72092 0.36194,-4.67202 -1.94869,-5.56245 z m -1.55544,0.36785 c 1.90033,0.73232 2.44904,2.65508 1.4754,5.18165 -0.64078,1.66279 -1.7717,3.3103 -2.96699,4.28817 -1.56102,1.28335 -3.39561,1.66764 -4.99362,1.05183 -1.9867,-0.76561 -2.55364,-2.7698 -1.53007,-5.42594 1.54785,-4.0166 5.03522,-6.24411 8.01528,-5.09571 z"
         style="font-style:italic;font-variant:normal;font-weight:500;font-stretch:normal;font-size:23.1426px;font-family:Z003;-inkscape-font-specification:'Z003, Medium Italic';font-variant-ligatures:normal;font-variant-caps:normal;font-variant-numeric:normal;font-variant-east-asian:normal"
         id="path2168" />
      <path
         d="m 312.9211,134.123 c 4.99569,2.47994 5.32721,2.59283 7.46932,2.49353 l 0.12377,-0.14525 c -0.99454,-0.33868 -2.3209,-0.89376 -3.461,-1.45972 -0.16583,-0.0823 -0.50793,-0.27799 -0.93295,-0.51481 2.265,-0.55504 3.15367,-1.04403 4.28812,-2.4445 l 4.8377,-5.68554 c 2.58157,1.56575 2.6023,1.57604 3.03761,1.79213 0.97427,0.48364 1.22227,0.34838 2.72821,-1.43609 l -0.11513,-0.44471 c -1.5702,1.02913 -1.7253,1.08132 -2.47154,0.71088 -0.20729,-0.10291 -0.65304,-0.35002 -1.28535,-0.68974 -2.9544,-1.64748 -3.27577,-1.83285 -4.00129,-2.19301 -3.62757,-1.80078 -7.29991,-1.16926 -8.61706,1.48406 -0.33958,0.68405 -0.47231,1.31577 -0.45935,2.22651 l 2.0589,-0.24396 c 0.10008,-1.19051 0.18181,-1.56333 0.46993,-2.14374 0.58654,-1.18156 1.55769,-1.78463 2.81008,-1.75718 0.66244,0.0188 1.41868,0.26502 2.5795,0.84128 0.45604,0.22638 0.53895,0.26754 1.81416,1.02976 l -5.03366,5.92415 c -2.2589,2.67671 -2.91001,2.99942 -4.71313,2.20767 z"
         style="font-style:italic;font-variant:normal;font-weight:500;font-stretch:normal;font-size:23.1426px;font-family:Z003;-inkscape-font-specification:'Z003, Medium Italic';font-variant-ligatures:normal;font-variant-caps:normal;font-variant-numeric:normal;font-variant-east-asian:normal"
         id="path2170" />
    </g>
  </g>
</svg>
